<?xml version="1.0" standalone="no"?><!DOCTYPE svg PUBLIC "-//W3C//DTD SVG 1.1//EN" "http://www.w3.org/Graphics/SVG/1.1/DTD/svg11.dtd"><svg t="1767279105440" class="icon" viewBox="0 0 1024 1024" version="1.1" xmlns="http://www.w3.org/2000/svg" p-id="1926" xmlns:xlink="http://www.w3.org/1999/xlink" width="200" height="200"><path d="M1.827144 981.176313m21.354745 0l977.636222 0q21.354745 0 21.354745 21.354745l0 0.114197q0 21.354745-21.354745 21.354745l-977.636222 0q-21.354745 0-21.354745-21.354745l0-0.114197q0-21.354745 21.354745-21.354745Z" fill="#2c2c2c" p-id="1927"></path><path d="M44.650831 0m0 21.354745l0 977.636222q0 21.354745-21.354745 21.354745l-0.114197 0q-21.354745 0-21.354745-21.354745l0-977.636222q0-21.354745 21.354745-21.354745l0.114197 0q21.354745 0 21.354745 21.354745Z" fill="#2c2c2c" p-id="1928"></path><path d="M432.303425 402.092949m-15.100086 15.100085l-220.122096 220.122097q-15.100085 15.100085-30.20017 0l-0.080749-0.08075q-15.100085-15.100085 0-30.20017l220.122096-220.122096q15.100085-15.100085 30.20017 0l0.080749 0.080749q15.100085 15.100085 0 30.20017Z" fill="#2c2c2c" p-id="1929"></path><path d="M402.03781 371.717901m15.100085 15.100086l220.122097 220.122096q15.100085 15.100085 0 30.20017l-0.080749 0.08075q-15.100085 15.100085-30.200171 0l-220.122096-220.122097q-15.100085-15.100085 0-30.20017l0.080749-0.080749q15.100085-15.100085 30.20017 0Z" fill="#2c2c2c" p-id="1930"></path><path d="M872.344866 402.029735m-15.100085 15.100085l-220.122096 220.122097q-15.100085 15.100085-30.200171 0l-0.080749-0.080749q-15.100085-15.100085 0-30.200171l220.122097-220.122096q15.100085-15.100085 30.20017 0l0.080749 0.080749q15.100085 15.100085 0 30.20017Z" fill="#2c2c2c" p-id="1931"></path></svg>